<svg id="424418a9-30e2-4be5-a2bb-b6b3deebb964" data-name="Layer 1" xmlns="http://www.w3.org/2000/svg" viewBox="0 0 162.75 38"><defs><style>.\38 d0401e8-da80-4c9c-8ac2-855a7d79ce93{fill:#2a3377;}.\34 4284104-992c-4a2b-9701-4032914a077a{fill:#ec1c2e;}.e241cd94-72f2-499d-981f-49c50408de7f{fill:#ffd200;}</style></defs><title>logo_bancolombia</title><path class="8d0401e8-da80-4c9c-8ac2-855a7d79ce93" d="M5.32,37.77c-1.08,0-3-.05-5.2-.05V19.54c1.51-.08,3.82-.13,6-.13,3.85,0,6,1.59,6,4.5A4.4,4.4,0,0,1,9.31,28V28a4,4,0,0,1,3.16,4.07c0,2.64-1.77,5.66-7.15,5.66m.24-15.53c-.72,0-1.4,0-2,.05V27c.43,0,.85,0,1.4,0,2.34,0,3.56-1,3.56-2.59,0-1.35-.79-2.23-3-2.23m-.5,7.44c-.26,0-1.13,0-1.5,0v5.1a15.25,15.25,0,0,0,1.88.11c2.24,0,3.37-1.08,3.37-2.72S7.3,29.68,5.06,29.68" transform="translate(-0.13 0)"/><path class="8d0401e8-da80-4c9c-8ac2-855a7d79ce93" d="M21.55,37.75a16.8,16.8,0,0,1,.14-2.41l0,0A4.65,4.65,0,0,1,17.26,38c-2.49,0-3.93-1.44-3.93-3.71,0-3.37,3.26-5.15,7.95-5.15v-.76c0-1.47-.69-2.23-2.69-2.23a8.85,8.85,0,0,0-4.07,1.1l-.3-3a14.7,14.7,0,0,1,4.93-.88c4.43,0,5.68,1.82,5.68,4.9l.11,9.47Zm-.28-6.26c-3.74,0-4.57,1.1-4.57,2.24a1.46,1.46,0,0,0,1.63,1.5,3.22,3.22,0,0,0,2.94-3.39Z" transform="translate(-0.13 0)"/><path class="8d0401e8-da80-4c9c-8ac2-855a7d79ce93" d="M134.83,37.75a17.06,17.06,0,0,1,.14-2.41l0,0a4.65,4.65,0,0,1-4.4,2.69c-2.49,0-3.93-1.44-3.93-3.71,0-3.37,3.26-5.15,7.95-5.15v-.76c0-1.47-.7-2.23-2.69-2.23a8.88,8.88,0,0,0-4.07,1.1l-.3-3a14.68,14.68,0,0,1,4.93-.88c4.43,0,5.68,1.82,5.68,4.9l.11,9.47Zm-.27-6.26c-3.74,0-4.57,1.1-4.57,2.24a1.46,1.46,0,0,0,1.63,1.5,3.22,3.22,0,0,0,2.94-3.39Z" transform="translate(-0.13 0)"/><path class="8d0401e8-da80-4c9c-8ac2-855a7d79ce93" d="M46.4,38c-3.83,0-6.21-2-6.21-6.83,0-4.39,2.24-7.75,7.12-7.75a10.35,10.35,0,0,1,2.83.4l-.36,3.14a7.05,7.05,0,0,0-2.49-.51c-2.24,0-3.38,1.7-3.38,4.36,0,2.41.91,4.05,3.27,4.05a6.13,6.13,0,0,0,2.72-.59l.27,3.08A10.72,10.72,0,0,1,46.4,38" transform="translate(-0.13 0)"/><path class="8d0401e8-da80-4c9c-8ac2-855a7d79ce93" d="M57.42,38C53.52,38,51,35.94,51,30.93c0-4.39,2.85-7.56,7-7.56,3.9,0,6.42,2.21,6.42,7.05,0,4.42-2.91,7.58-7,7.58m.36-11.58c-1.58,0-3.13,1.25-3.13,4.13s1,4.36,3.07,4.36c1.75,0,3.07-1.44,3.07-4.3s-.94-4.19-3-4.19" transform="translate(-0.13 0)"/><path class="8d0401e8-da80-4c9c-8ac2-855a7d79ce93" d="M77.38,38C73.48,38,71,35.94,71,30.93c0-4.39,2.85-7.56,7-7.56,3.9,0,6.42,2.21,6.42,7.05,0,4.42-2.91,7.58-7,7.58m.37-11.58c-1.58,0-3.13,1.25-3.13,4.13s1,4.36,3.08,4.36c1.74,0,3.07-1.44,3.07-4.3s-.94-4.19-3-4.19" transform="translate(-0.13 0)"/><path class="8d0401e8-da80-4c9c-8ac2-855a7d79ce93" d="M125.3,37.72h-3.77v-14a16.39,16.39,0,0,1,3.77-.09Zm-1.77-15.88a2.19,2.19,0,0,1,0-4.39,2.19,2.19,0,0,1,2.21,2.18,2.21,2.21,0,0,1-2.21,2.21" transform="translate(-0.13 0)"/><path class="8d0401e8-da80-4c9c-8ac2-855a7d79ce93" d="M34.74,23.34a5,5,0,0,0-4.68,2.83l0,0,.09-2.52a11,11,0,0,0-3.28.76V37.72h3.57V30.93c0-2.47,1.42-4.56,3.22-4.56,1.3,0,1.69.88,1.69,2.35v9h3.52V27.84c0-2.46-1-4.5-4.1-4.5" transform="translate(-0.13 0)"/><path class="8d0401e8-da80-4c9c-8ac2-855a7d79ce93" d="M66,18.85V37.72h3.42V18a10.9,10.9,0,0,0-3.42.84" transform="translate(-0.13 0)"/><path class="8d0401e8-da80-4c9c-8ac2-855a7d79ce93" d="M115.26,24.05a4.16,4.16,0,0,0-4,2.37h0a16.28,16.28,0,0,0,.21-2.62V18a10.79,10.79,0,0,0-3.42.86V37.34A17,17,0,0,0,113,38c4.51,0,7.09-3.13,7.09-7.66,0-4-1.69-6.28-4.83-6.28m-2,11.18a5.38,5.38,0,0,1-1.74-.24V31.22c0-2.24,1.06-4.31,2.8-4.31,1.54,0,2.25,1.26,2.25,3.77,0,3.31-1.37,4.55-3.3,4.55" transform="translate(-0.13 0)"/><path class="8d0401e8-da80-4c9c-8ac2-855a7d79ce93" d="M102,23.34a4.87,4.87,0,0,0-4.49,2.83,3.58,3.58,0,0,0-3.8-2.83,4.92,4.92,0,0,0-4.54,2.83h0a23.19,23.19,0,0,0,.17-2.54,10.6,10.6,0,0,0-3.35.83V37.72h3.55V31c0-2.63,1.52-4.61,3.15-4.61,1.36,0,1.63,1,1.63,2.43v8.92h3.49V31c0-2.75,1.61-4.61,3.15-4.61,1.3,0,1.64.93,1.64,2.43v8.92h3.54V28c0-3.19-1.47-4.7-4.13-4.7" transform="translate(-0.13 0)"/><path class="44284104-992c-4a2b-9701-4032914a077a" d="M162.78,19a1.16,1.16,0,0,1-.66,1.61c-1,.39-1.67.64-2.84,1.11l-1.85.71-2,.78c-2.9,1.11-6.19,2.35-10.31,3.87A1.64,1.64,0,0,1,143,26c-.67-2.16-1.44-4.24-2.18-6.19a1.47,1.47,0,0,1,1-2c2.09-.59,4-1.05,5.77-1.49s3.39-.82,4.91-1.16c3-.69,5-1.11,7.07-1.47a1.27,1.27,0,0,1,1.63.9c.59,1.44,1.11,2.89,1.6,4.4" transform="translate(-0.13 0)"/><path class="e241cd94-72f2-499d-981f-49c50408de7f" d="M160.83,7.25c-.29-.57-.54-.9-1.59-.92a67,67,0,0,0-11.4.91c-2.56.38-5.32.91-8.33,1.65-1.51.4-3,.78-4.53,1.29s-3.06,1-4.54,1.6a1.77,1.77,0,0,0-1.26,1.82c.38,1.58.78,3.17,1.25,5a1.49,1.49,0,0,0,2.09.79c3.33-1.27,6.81-2.35,10.06-3.23s6.06-1.5,8.63-2.07c5.08-1.1,7.74-1.46,10.47-1.94.62-.11.89-.51.62-1.19Z" transform="translate(-0.13 0)"/><path class="8d0401e8-da80-4c9c-8ac2-855a7d79ce93" d="M157.4,1a1.45,1.45,0,0,0-1.28-.81,48,48,0,0,0-9.77.13c-1.82.15-3.67.43-5.7.81s-4,.86-6.16,1.49c-.71.22-1.14.63-.87,1.45.38,1.11.71,2,1.16,3.35.3.86,1,.87,1.84.63,2.37-.7,4.62-1.24,6.82-1.67s4.17-.72,6.05-1a83.9,83.9,0,0,1,8.81-.57c.42,0,.7-.38.39-.87Z" transform="translate(-0.13 0)"/></svg>